<svg xmlns="http://www.w3.org/2000/svg" viewBox="0 0 100 100">
  <defs>
    <linearGradient id="grad" x1="0%" y1="0%" x2="100%" y2="100%">
      <stop offset="0%" stop-color="#6366f1" />
      <stop offset="100%" stop-color="#4338ca" />
    </linearGradient>
  </defs>
  <rect width="100" height="100" rx="22" fill="url(#grad)"/>
  <g transform="translate(18, 18) scale(2.6)" stroke="white" stroke-width="2" fill="none" stroke-linecap="round" stroke-linejoin="round">
    <path d="M6 22V4a2 2 0 0 1 2-2h8a2 2 0 0 1 2 2v18Z"/>
    <path d="M6 12H4a2 2 0 0 0-2 2v6a2 2 0 0 0 2 2h2"/>
    <path d="M18 9h2a2 2 0 0 1 2 2v9a2 2 0 0 1-2 2h-2"/>
    <path d="M10 6h4"/>
    <path d="M10 10h4"/>
    <path d="M10 14h4"/>
    <path d="M10 18h4"/>
  </g>
</svg>
